<svg xmlns="http://www.w3.org/2000/svg" version="1.1" xmlns:xlink="http://www.w3.org/1999/xlink" xmlns:svgjs="http://svgjs.dev/svgjs" width="1000" height="999" viewBox="0 0 1000 999"><g transform="matrix(1,0,0,1,-0.215743440233382,-0.21552769679306039)"><svg viewBox="0 0 343 343" data-background-color="#ffffff" preserveAspectRatio="xMidYMid meet" height="999" width="1000" xmlns="http://www.w3.org/2000/svg" xmlns:xlink="http://www.w3.org/1999/xlink"><g id="tight-bounds" transform="matrix(1,0,0,1,0.0740000000000407,0.07400000000001228)"><svg viewBox="0 0 342.85155851775386 342.85155851775386" height="342.85155851775386" width="342.85155851775386"><g><svg></svg></g><g><svg viewBox="0 0 342.85155851775386 342.85155851775386" height="342.85155851775386" width="342.85155851775386"><g><path d="M0 171.426c0-94.676 76.75-171.426 171.426-171.426 94.676 0 171.426 76.75 171.426 171.426 0 94.676-76.75 171.426-171.426 171.426-94.676 0-171.426-76.75-171.426-171.426zM171.426 329.285c87.183 0 157.859-70.676 157.859-157.859 0-87.183-70.676-157.859-157.859-157.859-87.183 0-157.859 70.676-157.859 157.859 0 87.183 70.676 157.859 157.859 157.859z" data-fill-palette-color="tertiary" fill="#1e55b3" stroke="transparent"></path><ellipse rx="164.56874808852186" ry="164.56874808852186" cx="171.42577925887693" cy="171.42577925887693" fill="#1e55b3" stroke="transparent" stroke-width="0" fill-opacity="1" data-fill-palette-color="tertiary"></ellipse></g><g transform="matrix(1,0,0,1,64.84655864529837,96.2060664294757)"><svg viewBox="0 0 213.1584412271571 150.43942565880246" height="150.43942565880246" width="213.1584412271571"><g><svg viewBox="0 0 213.1584412271571 150.43942565880246" height="150.43942565880246" width="213.1584412271571"><g><svg viewBox="0 0 213.1584412271571 150.43942565880246" height="150.43942565880246" width="213.1584412271571"><g><svg viewBox="0 0 213.1584412271571 150.43942565880246" height="150.43942565880246" width="213.1584412271571"><g id="textblocktransform"><svg viewBox="0 0 213.1584412271571 150.43942565880246" height="150.43942565880246" width="213.1584412271571" id="textblock"><g><svg viewBox="0 0 213.1584412271571 150.43942565880246" height="150.43942565880246" width="213.1584412271571"><g transform="matrix(1,0,0,1,0,0)"><svg width="213.1584412271571" viewBox="0.6000000238418579 -34.099998474121094 49.45000076293945 34.89999771118164" height="150.43942565880246" data-palette-color="#ffffff"><path d="M28.65 0L25.15 0 21.65-9.55 7.5-9.55 4.35 0 0.6 0 12.7-34.1 16.2-34.1 28.65 0ZM14.4-29.2L8.65-12.65 20.5-12.65 14.4-29.2ZM40 0.8Q36.5 0.8 33.87-1.07 31.25-2.95 29.85-6.35L29.85-6.35 33-7.85Q33.75-5.45 35.62-4.08 37.5-2.7 39.8-2.7L39.8-2.7Q43-2.7 44.65-4.67 46.3-6.65 46.3-10.25L46.3-10.25 46.3-34.1 50.05-34.1 50.05-10.25Q50.05-5.05 47.35-2.13 44.65 0.8 40 0.8L40 0.8Z" opacity="1" transform="matrix(1,0,0,1,0,0)" fill="#ffffff" class="undefined-text-0" data-fill-palette-color="quaternary" id="text-0"></path></svg></g></svg></g></svg></g></svg></g><g></g></svg></g></svg></g></svg></g></svg></g><defs></defs></svg><rect width="342.85155851775386" height="342.85155851775386" fill="none" stroke="none" visibility="hidden"></rect></g></svg></g></svg>