<svg xmlns="http://www.w3.org/2000/svg" version="1.1" xmlns:xlink="http://www.w3.org/1999/xlink" xmlns:svgjs="http://svgjs.dev/svgjs" width="1000" height="623" viewBox="0 0 1000 623"><g transform="matrix(1,0,0,1,-0.6060606060606233,118.76635778841035)"><svg viewBox="0 0 396 247" data-background-color="#ffffff" preserveAspectRatio="xMidYMid meet" height="623" width="1000" xmlns="http://www.w3.org/2000/svg" xmlns:xlink="http://www.w3.org/1999/xlink"><g id="tight-bounds" transform="matrix(1,0,0,1,0.2400000000000091,-0.09999999999999432)"><svg viewBox="0 0 395.52 247.2" height="247.2" width="395.52"><g><svg></svg></g><g><svg viewBox="0 0 395.52 247.2" height="247.2" width="395.52"><g transform="matrix(1,0,0,1,75.54432,56.07227019455253)"><svg viewBox="0 0 244.43135999999998 135.05545961089493" height="135.05545961089493" width="244.43135999999998"><g><svg viewBox="0 0 244.43135999999998 135.05545961089493" height="135.05545961089493" width="244.43135999999998"><g><svg viewBox="0 0 244.43135999999998 135.05545961089493" height="135.05545961089493" width="244.43135999999998"><g><svg viewBox="0 0 244.43135999999998 135.05545961089493" height="135.05545961089493" width="244.43135999999998"><g id="textblocktransform"><svg viewBox="0 0 244.43135999999998 135.05545961089493" height="135.05545961089493" width="244.43135999999998" id="textblock"><g><svg viewBox="0 0 244.43135999999998 135.05545961089493" height="135.05545961089493" width="244.43135999999998"><g transform="matrix(1,0,0,1,0,0)"><svg width="244.43135999999998" viewBox="0.6000000238418579 -35 64.25 35.5" height="135.05545961089493" data-palette-color="#4d7e3e"><path d="M6.9 0L1.65 0Q1.2 0 0.9-0.33 0.6-0.65 0.6-1.05L0.6-1.05Q0.6-1.3 0.65-1.5L0.65-1.5 12.55-33.65Q12.7-34.2 13.15-34.6 13.6-35 14.4-35L14.4-35 20.8-35Q21.6-35 22.05-34.6 22.5-34.2 22.7-33.65L22.7-33.65 34.55-1.5Q34.65-1.3 34.65-1.05L34.65-1.05Q34.65-0.65 34.33-0.33 34 0 33.55 0L33.55 0 28.3 0Q27.6 0 27.25-0.35 26.9-0.7 26.8-1L26.8-1 24.65-6.6 10.55-6.6 8.45-1Q8.3-0.7 7.98-0.35 7.65 0 6.9 0L6.9 0ZM17.6-27.4L12.45-13.05 22.75-13.05 17.6-27.4ZM50.6 0.5L50.6 0.5Q47.8 0.5 45.3-0.2 42.8-0.9 40.85-2.33 38.9-3.75 37.75-5.85 36.6-7.95 36.55-10.75L36.55-10.75Q36.55-11.2 36.85-11.53 37.15-11.85 37.6-11.85L37.6-11.85 43.35-11.85Q44.05-11.85 44.4-11.53 44.75-11.2 44.95-10.5L44.95-10.5Q45.25-8.95 46.05-7.93 46.85-6.9 48.07-6.45 49.3-6 50.8-6L50.8-6Q53.65-6 55.15-7.83 56.65-9.65 56.65-13.05L56.65-13.05 56.65-28.3 40.05-28.3Q39.55-28.3 39.2-28.65 38.85-29 38.85-29.55L38.85-29.55 38.85-33.75Q38.85-34.3 39.2-34.65 39.55-35 40.05-35L40.05-35 63.6-35Q64.15-35 64.5-34.65 64.85-34.3 64.85-33.75L64.85-33.75 64.85-12.85Q64.85-8.55 63.05-5.58 61.25-2.6 58.05-1.05 54.85 0.5 50.6 0.5Z" opacity="1" transform="matrix(1,0,0,1,0,0)" fill="#4d7e3e" class="undefined-text-0" data-fill-palette-color="primary" id="text-0"></path></svg></g></svg></g></svg></g></svg></g><g></g></svg></g></svg></g></svg></g><g><path d="M126.668 24.189A122.216 122.216 0 0 1 268.852 24.189L256.673 24.189A110.036 110.036 0 0 0 138.847 24.189L126.668 24.189M126.668 223.011A122.216 122.216 0 0 0 268.852 223.011L256.673 223.011A110.036 110.036 0 0 1 138.847 223.011L126.668 223.011" fill="#4d7e3e" stroke="transparent" data-fill-palette-color="tertiary"></path></g></svg></g><defs></defs></svg><rect width="395.52" height="247.2" fill="none" stroke="none" visibility="hidden"></rect></g></svg></g></svg>